<svg width="110" height="110" viewBox="0 0 110 110" fill="none" xmlns="http://www.w3.org/2000/svg">
<path d="M16.1683 98.0744L7.52813 1.16187H102.472L93.8231 98.0598L54.9424 108.839L16.1683 98.0744Z" fill="#1572B6"/>
<path d="M55.0009 100.6L86.4187 91.8895L93.8102 9.08533H55.0009V100.6Z" fill="#33A9DC"/>
<path d="M55.0009 44.1967H70.7291L71.8154 32.0254H55.0009V20.1394H84.8057L84.5204 23.3285L81.5985 56.0828H55.0009V44.1967Z" fill="white"/>
<path d="M55.0713 75.0655L55.0189 75.081L41.782 71.5069L40.9355 62.0271H29.0056L30.6702 80.6901L55.0172 87.4474L55.0713 87.4319V75.0655Z" fill="#EBEBEB"/>
<path d="M69.7185 55.5801L68.2868 71.4974L55.0301 75.0759V87.4423L79.3968 80.6893L79.5755 78.6809L81.6432 55.5801H69.7185Z" fill="white"/>
<path d="M55.0412 20.1394V32.0254H26.3312L26.0932 29.3545L25.5518 23.3285L25.2673 20.1394H55.0412ZM55.0009 44.1985V56.0845H41.9306L41.6926 53.4135L41.1503 47.3876L40.8667 44.1985H55.0009Z" fill="#EBEBEB"/>
</svg>
