<?xml version="1.0" encoding="utf-8"?>
<!-- Generator: Adobe Illustrator 27.2.0, SVG Export Plug-In . SVG Version: 6.00 Build 0)  -->
<svg version="1.1" id="Camada_1" xmlns="http://www.w3.org/2000/svg" xmlns:xlink="http://www.w3.org/1999/xlink" x="0px" y="0px"
	 viewBox="0 0 32 32" style="enable-background:new 0 0 32 32;" xml:space="preserve">
<style type="text/css">
	.st0{fill:#FFFFFF;}
</style>
<g>
	<path class="st0" d="M2.3,19.9c0,0.1,0,0.1,0,0.1c0,2.7,0,5.4,0,8.2c0,1.2,0.8,1.9,2,1.9c7.8,0,15.6,0,23.4,0c0.2,0,0.3,0,0.5,0
		c0.9-0.2,1.5-1,1.5-2c0-2.7,0-5.3,0-8c0-0.1,0-0.2,0-0.3c-1.3,0-2.5,0-3.8,0c0,2.1,0,4.3,0,6.4c-6.6,0-13.2,0-19.8,0
		c0-2.2,0-4.3,0-6.4C4.8,19.9,3.6,19.9,2.3,19.9z"/>
	<path class="st0" d="M18.5,1.9c0.2,0.2,0.3,0.4,0.3,0.6c0,3,0,5.9,0,8.9c0,0.1,0,0.2,0,0.4c0.1,0,0.2,0,0.3,0c0.9,0,1.7,0,2.6,0
		c0.1,0,0.4,0.1,0.4,0.2c0.1,0.1,0,0.3-0.1,0.4c-1.8,2.3-3.5,4.5-5.3,6.8c-0.4,0.5-0.8,0.5-1.2,0c-1.8-2.2-3.6-4.4-5.4-6.6
		c-0.1-0.1-0.2-0.3-0.2-0.5c0.2-0.1,0.4-0.2,0.5-0.2c0.9,0,1.7,0,2.6,0c0.1,0,0.2,0,0.3,0c0-0.1,0-0.2,0-0.3c0-3.1,0-6.1,0-9.2
		c0-0.3,0.1-0.5,0.3-0.6C15.3,1.9,16.9,1.9,18.5,1.9z"/>
	<path class="st0" d="M2.3,19.9c1.3,0,2.5,0,3.8,0c0,2.1,0,4.3,0,6.4c6.6,0,13.2,0,19.8,0c0-2.1,0-4.3,0-6.4c1.3,0,2.5,0,3.8,0
		c0,0.1,0,0.2,0,0.3c0,2.7,0,5.3,0,8c0,1-0.6,1.8-1.5,2c-0.2,0-0.3,0-0.5,0c-7.8,0-15.6,0-23.4,0c-1.2,0-2-0.8-2-1.9
		c0-2.7,0-5.4,0-8.2C2.3,20,2.3,19.9,2.3,19.9z"/>
</g>
</svg>
