<svg width="110" height="110" viewBox="0 0 110 110" fill="none" xmlns="http://www.w3.org/2000/svg">
<path d="M16.2502 97.5092L7.70982 1.72107H101.553L93.0028 97.4946L54.574 108.148L16.2502 97.5092Z" fill="#E44D26"/>
<path d="M54.6312 100.005L85.6839 91.3956L92.9899 9.55298H54.6312V100.005Z" fill="#F16529"/>
<path d="M54.6312 45.0795H39.0852L38.0113 33.0487H54.6312V21.3013H25.1722L25.4539 24.4528L28.3408 56.8278H54.6312V45.0795ZM54.6312 75.5901L54.5791 75.6047L41.4958 72.0707L40.6601 62.7023H28.8657L30.5115 81.148L54.5774 87.8284L54.6312 87.8139V75.5901Z" fill="#EBEBEB"/>
<path d="M54.5902 45.0795V56.8278H69.0564L67.6932 72.0639L54.5902 75.6004V87.8233L78.6749 81.148L78.8516 79.1634L81.6122 48.2344L81.8981 45.0795H78.7329H54.5902ZM54.5902 21.3013V33.0487H82.9677L83.2033 30.4093L83.7394 24.4528L84.0202 21.3013H54.5902Z" fill="white"/>
</svg>
