<?xml version="1.0" encoding="utf-8"?>
<!-- Generator: Adobe Illustrator 27.2.0, SVG Export Plug-In . SVG Version: 6.00 Build 0)  -->
<svg version="1.1" id="Camada_1" xmlns="http://www.w3.org/2000/svg" xmlns:xlink="http://www.w3.org/1999/xlink" x="0px" y="0px"
	 viewBox="0 0 178.1 165.6" style="enable-background:new 0 0 178.1 165.6;" xml:space="preserve">
<style type="text/css">
	.st0{fill:#FFFFFF;}
</style>
<g>
	<path class="st0" d="M89,164.2c24.6,0,49.1,0,73.7,0c8.1,0,13-4.5,13.7-12.6c0.2-3,0.1-6,0.1-9c0-11.5-4.5-15.9-16-15.9
		c-47.6,0-95.3,0-142.9,0c-1.3,0-2.7-0.1-4,0c-6.3,0.5-10.5,4.1-11.4,10.4c-0.6,4.4-0.7,8.9-0.5,13.4c0.3,9,5.2,13.6,14.2,13.6
		C40.2,164.2,64.6,164.2,89,164.2z M88.8,39.2c24.6,0,49.1,0,73.7,0c8.4,0,13.3-4.5,13.9-12.9c0.2-2.7,0-5.3,0-8
		c0-12.4-4.4-16.8-16.8-16.8c-32.5,0-65.1,0-97.6,0c-15.1,0-30.2,0-45.3,0c-9,0-14,3.9-14.9,11.9c-0.5,4.8-0.5,9.7,0.1,14.4
		c0.9,7.4,5.7,11.3,13.2,11.3C39.7,39.2,64.3,39.2,88.8,39.2z M89.2,64.2c-24.7,0-49.5,0-74.2,0c-7.3,0-11.9,3.8-13,11
		c-0.5,3.3-0.3,6.6-0.3,10c0,12.3,4.4,16.8,16.8,16.8c34.9,0,69.7,0,104.6,0c13,0,25.9,0.1,38.9,0c8.7-0.1,13.7-4.3,14.5-12.5
		c0.4-4.5,0.4-9-0.1-13.5c-0.8-7.7-5.7-11.7-13.4-11.8C138.3,64.2,113.7,64.2,89.2,64.2z"/>
</g>
</svg>
